<svg width="24" height="24" viewBox="0 0 24 24" fill="none" xmlns="http://www.w3.org/2000/svg">
<path d="M18.6072 8.37242C18.3583 8.13389 18.0217 8 17.6709 8C17.32 8 16.9834 8.13389 16.7346 8.37242L11.9668 12.9061L7.26542 8.37242C7.01659 8.13389 6.67999 8 6.32913 8C5.97827 8 5.64167 8.13389 5.39284 8.37242C5.26836 8.49148 5.16956 8.63312 5.10214 8.78919C5.03471 8.94525 5 9.11265 5 9.28171C5 9.45078 5.03471 9.61818 5.10214 9.77424C5.16956 9.93031 5.26836 10.072 5.39284 10.191L11.0239 15.6212C11.1473 15.7412 11.2942 15.8365 11.4561 15.9015C11.6179 15.9665 11.7915 16 11.9668 16C12.1421 16 12.3157 15.9665 12.4775 15.9015C12.6394 15.8365 12.7863 15.7412 12.9097 15.6212L18.6072 10.191C18.7316 10.072 18.8304 9.93031 18.8979 9.77424C18.9653 9.61818 19 9.45078 19 9.28171C19 9.11265 18.9653 8.94525 18.8979 8.78919C18.8304 8.63312 18.7316 8.49148 18.6072 8.37242Z" fill="#FF7506"/>
</svg>
