<svg width="34" height="34" viewBox="0 0 34 34" fill="none" xmlns="http://www.w3.org/2000/svg">
<path fill-rule="evenodd" clip-rule="evenodd" d="M17.0002 20.334C20.6821 20.334 23.6668 17.3492 23.6668 13.6673C23.6668 9.98542 20.6821 7.00065 17.0002 7.00065C13.3183 7.00065 10.3335 9.98542 10.3335 13.6673C10.3335 17.3492 13.3183 20.334 17.0002 20.334ZM17.0002 17.0007C18.8411 17.0007 20.3335 15.5083 20.3335 13.6673C20.3335 11.8264 18.8411 10.334 17.0002 10.334C15.1592 10.334 13.6668 11.8264 13.6668 13.6673C13.6668 15.5083 15.1592 17.0007 17.0002 17.0007Z" fill="#FF7506"/>
<path fill-rule="evenodd" clip-rule="evenodd" d="M26.877 30.4268C30.9951 27.3923 33.6668 22.5085 33.6668 17.0007C33.6668 7.79591 26.2049 0.333984 17.0002 0.333984C7.79542 0.333984 0.333496 7.79591 0.333496 17.0007C0.333496 22.5085 3.00519 27.3923 7.1233 30.4268C7.19906 30.4826 7.27531 30.5378 7.35204 30.5924C8.10012 31.1244 8.894 31.5962 9.72662 32.0007C11.9246 33.0684 14.3924 33.6673 17.0002 33.6673C19.6079 33.6673 22.0758 33.0684 24.2737 32.0007C24.3184 31.979 24.3629 31.9571 24.4074 31.935C25.2764 31.5031 26.1023 30.9977 26.877 30.4268ZM25.7147 27.0923C28.5435 24.6473 30.3335 21.033 30.3335 17.0007C30.3335 9.63685 24.364 3.66732 17.0002 3.66732C9.63637 3.66732 3.66683 9.63685 3.66683 17.0007C3.66683 21.033 5.45685 24.6473 8.28564 27.0923C10.0013 24.0528 13.2611 22.0007 17.0002 22.0007C20.7393 22.0007 23.9991 24.0528 25.7147 27.0923ZM22.928 28.9471C21.8203 26.8012 19.5816 25.334 17.0002 25.334C14.4188 25.334 12.18 26.8012 11.0724 28.9471C12.858 29.8348 14.8708 30.334 17.0002 30.334C19.1296 30.334 21.1424 29.8348 22.928 28.9471Z" fill="#FF7506"/>
</svg>
